<svg id="Icon" xmlns="http://www.w3.org/2000/svg" viewBox="0 0 20 26" height="20" width="26" class="file-input-dropdown__list__item__icon" data-v-61074ada=""><g><path d="M20 16C20 16.5304 19.7893 17.0391 19.4142 17.4142C19.0391 17.7893 18.5304 18 18 18H2C1.46957 18 0.960859 17.7893 0.585786 17.4142C0.210714 17.0391 0 16.5304 0 16V2C0 1.46957 0.210714 0.960859 0.585786 0.585786C0.960859 0.210714 1.46957 0 2 0H7L9 3H18C18.5304 3 19.0391 3.21071 19.4142 3.58579C19.7893 3.96086 20 4.46957 20 5V16Z" fill="white"/> <path fill-rule="evenodd" clip-rule="evenodd" d="M9 3L7 0H2C1.46957 0 0.960859 0.210714 0.585786 0.585786C0.210714 0.960859 0 1.46957 0 2V16C0 16.5304 0.210714 17.0391 0.585786 17.4142C0.960859 17.7893 1.46957 18 2 18H18C18.5304 18 19.0391 17.7893 19.4142 17.4142C19.7893 17.0391 20 16.5304 20 16V5C20 4.46957 19.7893 3.96086 19.4142 3.58579C19.0391 3.21071 18.5304 3 18 3H9ZM5.92963 2H2V16H18V5H9C8.33129 5 7.70683 4.6658 7.3359 4.1094L5.92963 2Z" fill="white"/></g></svg>