<svg data-v-0274f70e="" id="Icon" xmlns="http://www.w3.org/2000/svg" viewBox="0 0 20 26" height="20" width="26" class="file-input-dropdown__list__item__icon" data-v-31ec0642=""><g><path d="M14.992 0H9.04542C8.80715 0 8.58706 0.126933 8.46795 0.333333C8.34884 0.539733 8.3488 0.7936 8.46795 1L14.8254 12H22.3243L15.5688 0.332667C15.4497 0.126933 15.2296 0 14.992 0Z" fill="white"/> <path d="M7.469 1.99769L0.712956 13.666C0.596423 13.8666 0.593178 14.1127 0.703178 14.3171L3.5834 19.6504C3.69798 19.8626 3.91869 19.9968 4.16024 20H4.17002C4.40767 20 4.62838 19.8731 4.74749 19.6667L11.2139 8.47746L7.469 1.99769Z" fill="white"/> <path d="M23.2844 13.6582C23.1646 13.4571 22.9472 13.3333 22.7121 13.3333H9.98281L6.13045 20H19.832C20.0768 20 20.302 19.8659 20.4185 19.6504L23.2988 14.3171C23.4101 14.11 23.4049 13.86 23.2844 13.6582Z" fill="white"/></g></svg>