<svg data-v-0274f70e="" id="Icon" xmlns="http://www.w3.org/2000/svg" viewBox="0 0 20 26" height="20" width="26" class="file-input-dropdown__list__item__icon" data-v-31ec0642=""><g><path d="M10.9992 3.46348L17.1897 7.15566L21.4349 3.87305L15.2949 0L10.9992 3.46348Z" fill="white"/> <path d="M10.9992 3.46522L6.70359 0L0.564453 3.87218L4.81054 7.15653L10.9992 3.46522Z" fill="white"/> <path d="M10.9992 10.8487L15.294 14.3122L21.434 10.44L17.1879 7.15566L10.9992 10.8487L4.8088 7.15566L0.564453 10.44L6.70359 14.3122L10.9992 10.8487Z" fill="white"/> <path d="M17.521 16.2496V14.4018L15.6045 15.6105C14.8845 16.0688 14.5566 15.1453 10.9992 12.4792C7.38098 15.1992 7.10968 16.0618 6.39228 15.6105L4.4775 14.4027V16.2496L11.0123 20.0001L17.521 16.2496Z" fill="white"/></g></svg>