<svg id="Icon" xmlns="http://www.w3.org/2000/svg" viewBox="0 0 20 26" height="20" width="26" class="file-input-dropdown__list__item__icon" data-v-61074ada=""><g><path d="M11.7661 13.8266L8.70516 16.8876C7.43935 18.1535 5.37946 18.1537 4.11351 16.8878C3.50023 16.2745 3.16256 15.4591 3.16256 14.592C3.16256 13.7249 3.50023 12.9096 4.11329 12.2963C4.11322 12.2964 4.11336 12.2963 4.11329 12.2963L7.17449 9.23507C7.59708 8.81242 7.59708 8.12713 7.17442 7.70454C6.75183 7.28196 6.06655 7.28196 5.64389 7.70454L2.5829 10.7656C2.58312 10.7654 2.58269 10.7658 2.5829 10.7656C1.56133 11.7875 0.998047 13.1469 0.998047 14.592C0.998047 16.0373 1.56089 17.3962 2.58298 18.4183C3.63796 19.4732 5.02361 20.0007 6.40933 20.0007C7.79506 20.0007 9.18078 19.4732 10.2356 18.4183L13.2967 15.3571C13.7193 14.9345 13.7193 14.2492 13.2966 13.8266C12.8741 13.404 12.1889 13.404 11.7661 13.8266Z" fill="white"/> <path d="M21.0037 5.4087C21.0037 3.96331 20.4408 2.60443 19.4187 1.58234C17.3088 -0.527483 13.8758 -0.527411 11.7661 1.58234C11.7662 1.5822 11.766 1.58249 11.7661 1.58234L8.70488 4.64354C8.28223 5.06613 8.28223 5.75149 8.70488 6.17407C8.91629 6.38547 9.1932 6.4911 9.47018 6.4911C9.7471 6.4911 10.0242 6.3854 10.2354 6.17407L13.2963 3.11323C13.2962 3.11338 13.2964 3.11309 13.2963 3.11323C14.5621 1.84742 16.6222 1.84699 17.8882 3.11287C18.5014 3.72615 18.8392 4.54152 18.8392 5.4087C18.8392 6.2758 18.5015 7.09103 17.8884 7.70431C17.8885 7.70424 17.8883 7.70438 17.8884 7.70431L14.8272 10.7656C14.4046 11.1882 14.4046 11.8735 14.8273 12.2961C15.0386 12.5074 15.3156 12.6131 15.5925 12.6131C15.8695 12.6131 16.1465 12.5074 16.3578 12.2961L19.4188 9.23506C19.4186 9.23527 19.419 9.23484 19.4188 9.23506C20.4404 8.21312 21.0037 6.85373 21.0037 5.4087Z" fill="white"/> <path d="M7.17449 13.8266C7.38582 14.0379 7.6628 14.1436 7.93972 14.1436C8.2167 14.1436 8.49369 14.0379 8.70502 13.8266L14.8271 7.70447C15.2498 7.28189 15.2498 6.59661 14.8271 6.17395C14.4045 5.75136 13.7193 5.75136 13.2966 6.17395L7.17449 12.296C6.75183 12.7187 6.75183 13.404 7.17449 13.8266Z" fill="white"/></g></svg>